<svg width="31" height="31" viewBox="0 0 31 31" fill="none" xmlns="http://www.w3.org/2000/svg">
<path d="M15.4999 24.5416C15.4999 19.5429 19.5428 15.5 24.5416 15.5C25.9366 15.5 27.2412 15.8229 28.4166 16.3783V7.74996C28.4166 6.32913 27.2541 5.16663 25.8333 5.16663H5.16659C3.74575 5.16663 2.58325 6.32913 2.58325 7.74996V23.25C2.58325 24.6708 3.74575 25.8333 5.16659 25.8333H15.6033C15.5387 25.407 15.4999 24.9808 15.4999 24.5416ZM5.16659 7.74996L15.4999 14.2083L25.8333 7.74996V10.3333L15.4999 16.7916L5.16659 10.3333V7.74996ZM22.3974 28.4166L17.8249 23.8441L19.6462 22.0229L22.3845 24.7612L27.8612 19.2845L29.7083 21.1058L22.3974 28.4166Z" fill="black"/>
</svg>
