<svg width="31" height="31" viewBox="0 0 31 31" fill="none" xmlns="http://www.w3.org/2000/svg">
<path d="M15.4999 2.58337C8.36992 2.58337 2.58325 8.37004 2.58325 15.5C2.58325 22.63 8.36992 28.4167 15.4999 28.4167C22.6299 28.4167 28.4166 22.63 28.4166 15.5C28.4166 8.37004 22.6299 2.58337 15.4999 2.58337ZM16.7916 24.5417H14.2083V21.9584H16.7916V24.5417ZM19.4653 14.5313L18.3028 15.7196C17.3728 16.6625 16.7916 17.4375 16.7916 19.375H14.2083V18.7292C14.2083 17.3084 14.7895 16.0167 15.7195 15.0738L17.3212 13.4463C17.7991 12.9813 18.0833 12.3355 18.0833 11.625C18.0833 10.2042 16.9208 9.04171 15.4999 9.04171C14.0791 9.04171 12.9166 10.2042 12.9166 11.625H10.3333C10.3333 8.77046 12.6453 6.45837 15.4999 6.45837C18.3545 6.45837 20.6666 8.77046 20.6666 11.625C20.6666 12.7617 20.2016 13.795 19.4653 14.5313Z" fill="black"/>
</svg>
