<svg width="194" height="36" viewBox="0 0 194 36" fill="none" xmlns="http://www.w3.org/2000/svg">
<text fill="black" xml:space="preserve" style="white-space: pre" font-family="Roboto" font-size="30.6368" font-weight="300" letter-spacing="0em"><tspan x="126.211" y="28.4716">Jobs</tspan></text>
<text fill="black" xml:space="preserve" style="white-space: pre" font-family="Roboto" font-size="30.6368" font-weight="bold" letter-spacing="0em"><tspan x="43.6058" y="28.4716">Queer</tspan></text>
<g clip-path="url(#clip0_389_1038)">
<path d="M5.86551 5.57837C4.87961 5.8673 3.8937 6.30004 2.90779 6.91385C2.60958 7.09748 2.43219 7.43007 2.43219 7.7832V10.8176C4.59939 9.33826 6.76915 8.75399 8.93507 8.70519L5.86551 5.57837Z" fill="#FF575B"/>
<path d="M8.94683 8.70307C11.087 8.65684 13.226 9.13196 15.3649 9.77787C15.9099 8.78011 16.4292 7.7541 16.9279 6.71012C14.8597 6.02311 12.7915 5.41316 10.722 5.19486C10.2168 5.14221 9.71165 5.11268 9.2052 5.11011C8.09589 5.11011 6.98402 5.24879 5.87471 5.57367C5.87342 5.57367 5.87085 5.57367 5.86957 5.57496L8.94041 8.70178H8.94683V8.70307Z" fill="#FF575B"/>
<path d="M33.5597 11.4699V7.8782C32.0146 8.72828 30.4708 9.15718 28.9271 9.28944C28.8461 9.29843 28.7638 9.30485 28.6854 9.31127C28.6738 9.31127 28.661 9.31127 28.6494 9.31384C27.837 9.36906 27.0234 9.34466 26.211 9.25991C23.117 8.93888 20.0218 7.73823 16.9278 6.71094C16.429 7.75492 15.9097 8.77965 15.3647 9.77869C21.4306 11.6098 27.4951 14.8201 33.5584 11.4712L33.5597 11.4699Z" fill="#FF575B"/>
<path d="M12.8787 12.7166L8.93507 8.70117C6.76915 8.74997 4.59939 9.33424 2.43219 10.8135V14.4091C5.91693 12.0296 9.39524 11.968 12.8787 12.7166V12.7166Z" fill="#FF8353"/>
<path d="M12.8926 12.7212C13.1047 12.7674 13.3168 12.8162 13.5289 12.8676C14.1729 11.8763 14.7835 10.8425 15.3658 9.77673C13.2269 9.13082 11.0867 8.65698 8.94773 8.70192H8.94131L12.8862 12.7186C12.8862 12.7186 12.8926 12.7212 12.8939 12.7212H12.8926Z" fill="#FF8353"/>
<path d="M33.5608 15.0603V11.4686C27.495 14.8176 21.4304 11.6073 15.3646 9.77612C14.7823 10.8419 14.173 11.8757 13.5278 12.867C20.2054 14.4888 26.8831 18.7508 33.5595 15.0603H33.5608Z" fill="#FF8353"/>
<path d="M11.2308 16.0203C11.9686 15.124 12.6653 14.1712 13.3273 13.1721L12.8787 12.715C9.39524 11.9676 5.91693 12.0293 2.43219 14.4087V18.0017C5.36549 15.9972 8.2975 15.6363 11.2308 16.0203V16.0203Z" fill="#FCBF49"/>
<path d="M13.3274 13.1736C12.6655 14.1713 11.9688 15.1254 11.2309 16.0218C13.4341 16.3107 15.636 17.0195 17.8405 17.7682L13.3287 13.1736H13.3274Z" fill="#FCBF49"/>
<path d="M12.8928 12.7206C12.8928 12.7206 12.8877 12.7206 12.8851 12.718L13.3298 13.1713C13.3967 13.0699 13.4635 12.9684 13.5291 12.867C13.317 12.8156 13.1049 12.7668 12.8928 12.7206V12.7206Z" fill="#FCBF49"/>
<path d="M33.5634 18.6499V15.0583C26.8844 18.7488 20.2067 14.4868 13.5303 12.865C13.4635 12.9664 13.3979 13.0679 13.3311 13.1693L17.8467 17.7677C17.8467 17.7677 17.8519 17.769 17.8544 17.769C23.0899 19.5463 28.3279 21.5443 33.5647 18.6487L33.5634 18.6499Z" fill="#FCBF49"/>
<path d="M9.55206 17.8861C10.1344 17.298 10.6935 16.6752 11.2308 16.0216C8.29879 15.6376 5.36549 15.9985 2.43219 18.003V21.5959C4.21505 20.3773 5.99791 19.7673 7.78077 19.5619C8.38363 19.0251 8.97491 18.4678 9.55206 17.8861V17.8861Z" fill="#7AC74D"/>
<path d="M11.2308 16.022C10.6935 16.6743 10.1344 17.2984 9.55208 17.8865C8.97622 18.4682 8.38493 19.0255 7.78079 19.5623C12.8453 18.978 17.9111 21.6644 22.9743 22.9986L17.8391 17.7697C15.6359 17.0197 13.4327 16.3109 11.2295 16.0233L11.2308 16.022Z" fill="#7AC74D"/>
<path d="M33.5646 22.2462V18.6507C28.3253 21.5464 23.0873 19.5483 17.8518 17.7711C17.8505 17.7711 17.8467 17.7711 17.8441 17.7698L22.9806 23C22.9806 23 22.9806 23 22.9832 23C26.509 23.9271 30.0388 24.1942 33.5646 22.2462Z" fill="#7AC74D"/>
<path d="M2.43219 21.5983V23.6413C4.27675 22.4214 6.0776 21.0782 7.78077 19.5642C5.99791 19.7697 4.21505 20.3796 2.43219 21.5983Z" fill="#00B0FF"/>
<path d="M27.1879 27.2893L22.9743 22.9991C17.9111 21.6662 12.8453 18.9798 7.78077 19.5628C6.07761 21.0781 4.27803 22.42 2.43219 23.6399V25.1898C10.6832 19.5525 18.9368 26.9208 27.1866 27.2893H27.1879Z" fill="#00B0FF"/>
<path d="M33.566 25.8405V22.2488C30.0388 24.1968 26.5091 23.9297 22.9832 23.0026C22.9832 23.0026 22.9819 23.0026 22.9806 23.0026L27.1903 27.2889H27.1955C29.3177 27.384 31.4425 27.0154 33.5672 25.8405H33.566Z" fill="#00B0FF"/>
<path d="M30.4541 30.6133L27.1878 27.2875C18.9368 26.9189 10.6832 19.5507 2.43219 25.1892V26.734C3.00805 27.0422 3.54278 27.4172 4.02867 27.8499C12.835 23.5327 21.6465 32.5652 30.4528 30.6146L30.4541 30.6133Z" fill="#B99FE4"/>
<path d="M33.5658 25.8398C31.441 27.0148 29.3163 27.3834 27.1941 27.2883H27.1889L30.4539 30.6129C31.0284 30.4858 31.603 30.3137 32.1763 30.0851C32.2123 30.071 33.1378 29.6434 33.4707 29.4777C33.5028 29.4598 33.535 29.4431 33.5671 29.4251V25.8398H33.5658Z" fill="#B99FE4"/>
<path d="M2.43262 27.0047C2.43262 27.7598 3.21029 28.2606 3.87099 27.9254C3.92369 27.8985 3.97639 27.8728 4.02909 27.8471C3.54321 27.4144 3.00848 27.0394 2.43262 26.7312V27.0047V27.0047Z" fill="#B99FE4"/>
</g>
<defs>
<clipPath id="clip0_389_1038">
<rect width="31.1351" height="25.7838" fill="white" transform="translate(2.43243 5.10815)"/>
</clipPath>
</defs>
</svg>
