<svg width="31" height="31" viewBox="0 0 31 31" fill="none" xmlns="http://www.w3.org/2000/svg">
<path d="M24.7226 16.7141C24.7742 16.3266 24.8001 15.9262 24.8001 15.5C24.8001 15.0866 24.7742 14.6733 24.7096 14.2858L27.3317 12.245C27.5642 12.0641 27.6288 11.7154 27.4867 11.4571L25.0067 7.16873C24.8517 6.88456 24.5288 6.79414 24.2446 6.88456L21.1576 8.12456C20.5117 7.63373 19.8271 7.22039 19.0651 6.91039L18.6001 3.62956C18.5484 3.31956 18.2901 3.09998 17.9801 3.09998H13.0201C12.7101 3.09998 12.4646 3.31956 12.413 3.62956L11.948 6.91039C11.1859 7.22039 10.4884 7.64664 9.85548 8.12456L6.76839 6.88456C6.48423 6.78123 6.16131 6.88456 6.00631 7.16873L3.53923 11.4571C3.38423 11.7283 3.43589 12.0641 3.69423 12.245L6.31631 14.2858C6.25173 14.6733 6.20006 15.0996 6.20006 15.5C6.20006 15.9004 6.22589 16.3266 6.29048 16.7141L3.66839 18.755C3.43589 18.9358 3.37131 19.2846 3.51339 19.5429L5.99339 23.8312C6.14839 24.1154 6.47131 24.2058 6.75548 24.1154L9.84256 22.8754C10.4884 23.3662 11.173 23.7796 11.9351 24.0896L12.4001 27.3704C12.4646 27.6804 12.7101 27.9 13.0201 27.9H17.9801C18.2901 27.9 18.5484 27.6804 18.5871 27.3704L19.0521 24.0896C19.8142 23.7796 20.5117 23.3662 21.1446 22.8754L24.2317 24.1154C24.5159 24.2187 24.8388 24.1154 24.9938 23.8312L27.4738 19.5429C27.6288 19.2587 27.5642 18.9358 27.3188 18.755L24.7226 16.7141ZM15.5001 20.15C12.9426 20.15 10.8501 18.0575 10.8501 15.5C10.8501 12.9425 12.9426 10.85 15.5001 10.85C18.0576 10.85 20.1501 12.9425 20.1501 15.5C20.1501 18.0575 18.0576 20.15 15.5001 20.15Z" fill="black"/>
</svg>
