<svg width="31" height="31" viewBox="0 0 31 31" fill="none" xmlns="http://www.w3.org/2000/svg">
<path d="M15.4999 2.58337C8.36992 2.58337 2.58325 8.37004 2.58325 15.5C2.58325 22.63 8.36992 28.4167 15.4999 28.4167C22.6299 28.4167 28.4166 22.63 28.4166 15.5C28.4166 8.37004 22.6299 2.58337 15.4999 2.58337ZM15.4999 6.45837C17.6441 6.45837 19.3749 8.18921 19.3749 10.3334C19.3749 12.4775 17.6441 14.2084 15.4999 14.2084C13.3558 14.2084 11.6249 12.4775 11.6249 10.3334C11.6249 8.18921 13.3558 6.45837 15.4999 6.45837ZM15.4999 24.8C12.2708 24.8 9.41617 23.1467 7.74992 20.6409C7.78867 18.0705 12.9166 16.6625 15.4999 16.6625C18.0703 16.6625 23.2112 18.0705 23.2499 20.6409C21.5837 23.1467 18.7291 24.8 15.4999 24.8Z" fill="black"/>
</svg>
